<svg height="48" viewBox="0 0 48 48" width="48" xmlns="http://www.w3.org/2000/svg"><path d="m20.5 6c-7.984444 0-14.5 6.515562-14.5 14.5s6.515556 14.5 14.5 14.5c3.273158 0 6.288919-1.106982 8.720703-2.949219l9.365235 9.363281a2.0002 2.0002 0 1 0 2.828124-2.828124l-9.363281-9.365235c1.842236-2.431785 2.949219-5.447547 2.949219-8.720703 0-7.984438-6.515556-14.5-14.5-14.5zm0 4c5.822685 0 10.5 4.677319 10.5 10.5 0 2.795711-1.085935 5.320601-2.851562 7.197266a2.0002 2.0002 0 0 0 -.447266.447265c-1.877069 1.767872-4.403462 2.855469-7.201172 2.855469-5.822685 0-10.5-4.677319-10.5-10.5s4.677315-10.5 10.5-10.5z"/></svg>